<mxfile host="Electron" modified="2024-08-13T02:49:40.082Z" agent="Mozilla/5.0 (Windows NT 10.0; Win64; x64) AppleWebKit/537.36 (KHTML, like Gecko) draw.io/21.7.5 Chrome/114.0.5735.289 Electron/25.8.1 Safari/537.36" etag="5OukXPazfocgI89XY3ZO" version="21.7.5" type="device">
  <diagram name="Page-1" id="Jd1PwfD_PY1mLdllUvJW">
    <mxGraphModel dx="2049" dy="2106" grid="1" gridSize="10" guides="1" tooltips="1" connect="1" arrows="1" fold="1" page="1" pageScale="1" pageWidth="1600" pageHeight="900" math="0" shadow="0">
      <root>
        <mxCell id="0" />
        <mxCell id="1" parent="0" />
        <mxCell id="9pm9uhXrdwXix8Lpwpny-104" value="" style="strokeWidth=1;shadow=0;dashed=0;align=center;html=1;shape=mxgraph.mockup.containers.browserWindow;rSize=0;strokeColor2=#008cff;strokeColor3=#c4c4c4;mainText=,;recursiveResize=0;whiteSpace=wrap;spacingTop=0;horizontal=1;fontSize=20;" vertex="1" parent="1">
          <mxGeometry width="1600" height="900" as="geometry" />
        </mxCell>
        <mxCell id="9pm9uhXrdwXix8Lpwpny-105" value="Locations" style="strokeWidth=1;shadow=0;dashed=0;align=center;html=1;shape=mxgraph.mockup.containers.anchor;fontSize=17;fontColor=#666666;align=left;whiteSpace=wrap;" vertex="1" parent="9pm9uhXrdwXix8Lpwpny-104">
          <mxGeometry x="60" y="12" width="110" height="26" as="geometry" />
        </mxCell>
        <mxCell id="9pm9uhXrdwXix8Lpwpny-106" value="https://www.devflix.com/locations" style="strokeWidth=1;shadow=0;dashed=0;align=center;html=1;shape=mxgraph.mockup.containers.anchor;rSize=0;fontSize=17;fontColor=#666666;align=left;" vertex="1" parent="9pm9uhXrdwXix8Lpwpny-104">
          <mxGeometry x="130" y="60" width="250" height="26" as="geometry" />
        </mxCell>
        <mxCell id="9pm9uhXrdwXix8Lpwpny-107" value="Chercher une location" style="strokeWidth=1;shadow=0;dashed=0;align=center;html=1;shape=mxgraph.mockup.forms.searchBox;strokeColor=#999999;mainText=;strokeColor2=#008cff;fontColor=#666666;fontSize=17;align=left;spacingLeft=3;whiteSpace=wrap;container=1;" vertex="1" parent="9pm9uhXrdwXix8Lpwpny-104">
          <mxGeometry x="1340" y="200" width="240" height="30" as="geometry" />
        </mxCell>
        <mxCell id="9pm9uhXrdwXix8Lpwpny-108" value="&lt;b&gt;&lt;u&gt;&lt;font style=&quot;font-size: 35px;&quot;&gt;Locations&lt;/font&gt;&lt;/u&gt;&lt;/b&gt;" style="text;html=1;strokeColor=none;fillColor=none;align=center;verticalAlign=middle;whiteSpace=wrap;rounded=0;" vertex="1" parent="9pm9uhXrdwXix8Lpwpny-104">
          <mxGeometry x="20" y="280" width="180" height="60" as="geometry" />
        </mxCell>
        <mxCell id="9pm9uhXrdwXix8Lpwpny-109" value="C29" style="strokeWidth=1;shadow=0;dashed=0;align=center;html=1;shape=mxgraph.mockup.text.callout;linkText=;textSize=17;textColor=#666666;callDir=SW;callStyle=line;fontSize=17;align=left;verticalAlign=bottom;strokeColor=#60A917;" vertex="1" parent="9pm9uhXrdwXix8Lpwpny-104">
          <mxGeometry x="1185" y="229.5" width="100" height="37" as="geometry" />
        </mxCell>
        <mxCell id="9pm9uhXrdwXix8Lpwpny-110" value="&lt;font color=&quot;#f0f0f0&quot;&gt;C23&lt;/font&gt;" style="strokeWidth=1;shadow=0;dashed=0;align=center;html=1;shape=mxgraph.mockup.text.callout;linkText=;textSize=17;textColor=#666666;callDir=SE;callStyle=line;fontSize=17;fontColor=#666666;align=right;verticalAlign=bottom;strokeColor=#60A917;" vertex="1" parent="9pm9uhXrdwXix8Lpwpny-104">
          <mxGeometry x="1440" y="230" width="100" height="30" as="geometry" />
        </mxCell>
        <mxCell id="9pm9uhXrdwXix8Lpwpny-111" value="&lt;font color=&quot;#000000&quot;&gt;Défault&lt;/font&gt;" style="strokeWidth=1;shadow=0;dashed=0;align=center;html=1;shape=mxgraph.mockup.forms.comboBox;strokeColor=#F0F0F0;fillColor=#008CFF;align=left;fillColor2=#aaddff;mainText=;fontColor=#ffffff;fontSize=17;spacingLeft=3;labelBackgroundColor=none;" vertex="1" parent="9pm9uhXrdwXix8Lpwpny-104">
          <mxGeometry x="1160" y="200" width="150" height="30" as="geometry" />
        </mxCell>
        <mxCell id="9pm9uhXrdwXix8Lpwpny-112" value="" style="sketch=0;aspect=fixed;pointerEvents=1;shadow=0;dashed=0;html=1;strokeColor=none;labelPosition=center;verticalLabelPosition=bottom;verticalAlign=top;align=center;fillColor=#008cff;shape=mxgraph.mscae.enterprise.filter;container=1;" vertex="1" parent="9pm9uhXrdwXix8Lpwpny-104">
          <mxGeometry x="1260" y="213" width="18.89" height="17" as="geometry">
            <mxRectangle x="580" y="120" width="50" height="40" as="alternateBounds" />
          </mxGeometry>
        </mxCell>
        <mxCell id="9pm9uhXrdwXix8Lpwpny-113" value="" style="shape=table;startSize=0;container=1;collapsible=0;childLayout=tableLayout;fontSize=18;" vertex="1" parent="9pm9uhXrdwXix8Lpwpny-104">
          <mxGeometry x="20" y="340" width="990" height="150" as="geometry" />
        </mxCell>
        <mxCell id="9pm9uhXrdwXix8Lpwpny-114" style="shape=tableRow;horizontal=0;startSize=0;swimlaneHead=0;swimlaneBody=0;strokeColor=inherit;top=0;left=0;bottom=0;right=0;collapsible=0;dropTarget=0;fillColor=none;points=[[0,0.5],[1,0.5]];portConstraint=eastwest;fontSize=18;" vertex="1" parent="9pm9uhXrdwXix8Lpwpny-113">
          <mxGeometry width="990" height="54" as="geometry" />
        </mxCell>
        <mxCell id="9pm9uhXrdwXix8Lpwpny-116" value="Film loué" style="shape=partialRectangle;html=1;whiteSpace=wrap;connectable=0;strokeColor=#666666;overflow=hidden;fillColor=#f5f5f5;top=0;left=0;bottom=0;right=0;pointerEvents=1;fontSize=18;fontColor=#333333;" vertex="1" parent="9pm9uhXrdwXix8Lpwpny-114">
          <mxGeometry width="480" height="54" as="geometry">
            <mxRectangle width="480" height="54" as="alternateBounds" />
          </mxGeometry>
        </mxCell>
        <mxCell id="9pm9uhXrdwXix8Lpwpny-117" value="Date de début" style="shape=partialRectangle;html=1;whiteSpace=wrap;connectable=0;strokeColor=#666666;overflow=hidden;fillColor=#f5f5f5;top=0;left=0;bottom=0;right=0;pointerEvents=1;fontSize=18;fontColor=#333333;" vertex="1" parent="9pm9uhXrdwXix8Lpwpny-114">
          <mxGeometry x="480" width="180" height="54" as="geometry">
            <mxRectangle width="180" height="54" as="alternateBounds" />
          </mxGeometry>
        </mxCell>
        <mxCell id="9pm9uhXrdwXix8Lpwpny-118" value="Date d&#39;échéance" style="shape=partialRectangle;html=1;whiteSpace=wrap;connectable=0;strokeColor=#666666;overflow=hidden;fillColor=#f5f5f5;top=0;left=0;bottom=0;right=0;pointerEvents=1;fontSize=18;fontColor=#333333;" vertex="1" parent="9pm9uhXrdwXix8Lpwpny-114">
          <mxGeometry x="660" width="180" height="54" as="geometry">
            <mxRectangle width="180" height="54" as="alternateBounds" />
          </mxGeometry>
        </mxCell>
        <mxCell id="9pm9uhXrdwXix8Lpwpny-119" value="Renouvellement" style="shape=partialRectangle;html=1;whiteSpace=wrap;connectable=0;strokeColor=#666666;overflow=hidden;fillColor=#f5f5f5;top=0;left=0;bottom=0;right=0;pointerEvents=1;fontSize=18;fontColor=#333333;" vertex="1" parent="9pm9uhXrdwXix8Lpwpny-114">
          <mxGeometry x="840" width="150" height="54" as="geometry">
            <mxRectangle width="150" height="54" as="alternateBounds" />
          </mxGeometry>
        </mxCell>
        <mxCell id="9pm9uhXrdwXix8Lpwpny-122" value="" style="shape=tableRow;horizontal=0;startSize=0;swimlaneHead=0;swimlaneBody=0;strokeColor=inherit;top=0;left=0;bottom=0;right=0;collapsible=0;dropTarget=0;fillColor=none;points=[[0,0.5],[1,0.5]];portConstraint=eastwest;fontSize=18;" vertex="1" parent="9pm9uhXrdwXix8Lpwpny-113">
          <mxGeometry y="54" width="990" height="46" as="geometry" />
        </mxCell>
        <mxCell id="9pm9uhXrdwXix8Lpwpny-124" value="Star Wars épisode I : La menace fantôme (1999)" style="shape=partialRectangle;html=1;whiteSpace=wrap;connectable=0;strokeColor=inherit;overflow=hidden;fillColor=none;top=0;left=0;bottom=0;right=0;pointerEvents=1;fontSize=18;" vertex="1" parent="9pm9uhXrdwXix8Lpwpny-122">
          <mxGeometry width="480" height="46" as="geometry">
            <mxRectangle width="480" height="46" as="alternateBounds" />
          </mxGeometry>
        </mxCell>
        <mxCell id="9pm9uhXrdwXix8Lpwpny-125" value="06-08-2024" style="shape=partialRectangle;html=1;whiteSpace=wrap;connectable=0;strokeColor=inherit;overflow=hidden;fillColor=none;top=0;left=0;bottom=0;right=0;pointerEvents=1;fontSize=18;" vertex="1" parent="9pm9uhXrdwXix8Lpwpny-122">
          <mxGeometry x="480" width="180" height="46" as="geometry">
            <mxRectangle width="180" height="46" as="alternateBounds" />
          </mxGeometry>
        </mxCell>
        <mxCell id="9pm9uhXrdwXix8Lpwpny-126" value="09-08-2024" style="shape=partialRectangle;html=1;whiteSpace=wrap;connectable=0;strokeColor=inherit;overflow=hidden;fillColor=none;top=0;left=0;bottom=0;right=0;pointerEvents=1;fontSize=18;" vertex="1" parent="9pm9uhXrdwXix8Lpwpny-122">
          <mxGeometry x="660" width="180" height="46" as="geometry">
            <mxRectangle width="180" height="46" as="alternateBounds" />
          </mxGeometry>
        </mxCell>
        <mxCell id="9pm9uhXrdwXix8Lpwpny-127" style="shape=partialRectangle;html=1;whiteSpace=wrap;connectable=0;strokeColor=inherit;overflow=hidden;fillColor=none;top=0;left=0;bottom=0;right=0;pointerEvents=1;fontSize=18;" vertex="1" parent="9pm9uhXrdwXix8Lpwpny-122">
          <mxGeometry x="840" width="150" height="46" as="geometry">
            <mxRectangle width="150" height="46" as="alternateBounds" />
          </mxGeometry>
        </mxCell>
        <mxCell id="9pm9uhXrdwXix8Lpwpny-138" style="shape=tableRow;horizontal=0;startSize=0;swimlaneHead=0;swimlaneBody=0;strokeColor=inherit;top=0;left=0;bottom=0;right=0;collapsible=0;dropTarget=0;fillColor=none;points=[[0,0.5],[1,0.5]];portConstraint=eastwest;fontSize=18;" vertex="1" parent="9pm9uhXrdwXix8Lpwpny-113">
          <mxGeometry y="100" width="990" height="50" as="geometry" />
        </mxCell>
        <mxCell id="9pm9uhXrdwXix8Lpwpny-140" style="shape=partialRectangle;html=1;whiteSpace=wrap;connectable=0;overflow=hidden;top=0;left=0;bottom=0;right=0;pointerEvents=1;fontSize=18;fillColor=none;" vertex="1" parent="9pm9uhXrdwXix8Lpwpny-138">
          <mxGeometry width="480" height="50" as="geometry">
            <mxRectangle width="480" height="50" as="alternateBounds" />
          </mxGeometry>
        </mxCell>
        <mxCell id="9pm9uhXrdwXix8Lpwpny-141" style="shape=partialRectangle;html=1;whiteSpace=wrap;connectable=0;overflow=hidden;top=0;left=0;bottom=0;right=0;pointerEvents=1;fontSize=18;fillColor=none;" vertex="1" parent="9pm9uhXrdwXix8Lpwpny-138">
          <mxGeometry x="480" width="180" height="50" as="geometry">
            <mxRectangle width="180" height="50" as="alternateBounds" />
          </mxGeometry>
        </mxCell>
        <mxCell id="9pm9uhXrdwXix8Lpwpny-142" style="shape=partialRectangle;html=1;whiteSpace=wrap;connectable=0;overflow=hidden;top=0;left=0;bottom=0;right=0;pointerEvents=1;fontSize=18;fillColor=none;" vertex="1" parent="9pm9uhXrdwXix8Lpwpny-138">
          <mxGeometry x="660" width="180" height="50" as="geometry">
            <mxRectangle width="180" height="50" as="alternateBounds" />
          </mxGeometry>
        </mxCell>
        <mxCell id="9pm9uhXrdwXix8Lpwpny-143" style="shape=partialRectangle;html=1;whiteSpace=wrap;connectable=0;overflow=hidden;top=0;left=0;bottom=0;right=0;pointerEvents=1;fontSize=18;fillColor=none;" vertex="1" parent="9pm9uhXrdwXix8Lpwpny-138">
          <mxGeometry x="840" width="150" height="50" as="geometry">
            <mxRectangle width="150" height="50" as="alternateBounds" />
          </mxGeometry>
        </mxCell>
        <mxCell id="9pm9uhXrdwXix8Lpwpny-146" value="Mentions Legales" style="fillColor=none;strokeColor=none;html=1;fontColor=#0057D8;align=center;verticalAlign=middle;fontStyle=0;fontSize=17;" vertex="1" parent="9pm9uhXrdwXix8Lpwpny-104">
          <mxGeometry x="105" y="825" width="250" height="75" as="geometry" />
        </mxCell>
        <mxCell id="9pm9uhXrdwXix8Lpwpny-147" value="FAQ" style="fillColor=none;strokeColor=none;html=1;fontColor=#0057D8;align=center;verticalAlign=middle;fontStyle=0;fontSize=17;fontFamily=Helvetica;" vertex="1" parent="9pm9uhXrdwXix8Lpwpny-104">
          <mxGeometry x="495" y="825" width="250" height="75" as="geometry" />
        </mxCell>
        <mxCell id="9pm9uhXrdwXix8Lpwpny-148" value="Contacts" style="fillColor=none;strokeColor=none;html=1;fontColor=#0057D8;align=center;verticalAlign=middle;fontStyle=0;fontSize=17;fontFamily=Helvetica;" vertex="1" parent="9pm9uhXrdwXix8Lpwpny-104">
          <mxGeometry x="875" y="825" width="250" height="75" as="geometry" />
        </mxCell>
        <mxCell id="9pm9uhXrdwXix8Lpwpny-149" value="Carrière&amp;nbsp;" style="fillColor=none;strokeColor=none;html=1;fontColor=#0057D8;align=center;verticalAlign=middle;fontStyle=0;fontSize=17;fontFamily=Helvetica;" vertex="1" parent="9pm9uhXrdwXix8Lpwpny-104">
          <mxGeometry x="1245" y="825" width="250" height="75" as="geometry" />
        </mxCell>
        <mxCell id="9pm9uhXrdwXix8Lpwpny-150" value="Devflix" style="text;html=1;points=[];align=left;verticalAlign=top;spacingTop=-4;fontSize=45;fontFamily=Verdana;" vertex="1" parent="9pm9uhXrdwXix8Lpwpny-104">
          <mxGeometry x="50" y="150" width="340" height="50" as="geometry" />
        </mxCell>
        <mxCell id="9pm9uhXrdwXix8Lpwpny-152" value="C21" style="strokeWidth=1;shadow=0;dashed=0;align=center;html=1;shape=mxgraph.mockup.text.callout;linkText=;textSize=17;textColor=#666666;callDir=SE;callStyle=line;fontSize=17;fontColor=#F0F0F0;align=right;verticalAlign=bottom;strokeColor=#60A917;" vertex="1" parent="9pm9uhXrdwXix8Lpwpny-104">
          <mxGeometry x="890" y="430" width="90" height="40" as="geometry" />
        </mxCell>
        <mxCell id="9pm9uhXrdwXix8Lpwpny-156" value="&lt;font style=&quot;font-size: 18px;&quot;&gt;Renouveler&lt;/font&gt;" style="strokeWidth=1;shadow=0;dashed=0;align=center;html=1;shape=mxgraph.mockup.buttons.button;strokeColor=#B20000;mainText=;buttonStyle=round;fontSize=17;fontStyle=1;fillColor=#e51400;whiteSpace=wrap;fontColor=#ffffff;" vertex="1" parent="9pm9uhXrdwXix8Lpwpny-104">
          <mxGeometry x="869.9999999999998" y="400" width="130" height="30" as="geometry" />
        </mxCell>
        <mxCell id="9pm9uhXrdwXix8Lpwpny-162" value="C24" style="strokeWidth=1;shadow=0;dashed=0;align=center;html=1;shape=mxgraph.mockup.text.callout;linkText=;textSize=17;textColor=#666666;callDir=SW;callStyle=line;fontSize=17;align=left;verticalAlign=bottom;strokeColor=#60A917;" vertex="1" parent="9pm9uhXrdwXix8Lpwpny-104">
          <mxGeometry x="1000" y="240" width="100" height="36.5" as="geometry" />
        </mxCell>
        <mxCell id="9pm9uhXrdwXix8Lpwpny-163" value="&lt;font color=&quot;#f0f0f0&quot;&gt;C22&lt;/font&gt;" style="strokeWidth=1;shadow=0;dashed=0;align=center;html=1;shape=mxgraph.mockup.text.callout;linkText=;textSize=17;textColor=#666666;callDir=NW;callStyle=line;fontSize=17;fontColor=#666666;align=left;verticalAlign=top;strokeColor=#60A917;flipH=0;" vertex="1" parent="9pm9uhXrdwXix8Lpwpny-104">
          <mxGeometry x="260" y="280" width="120" height="60" as="geometry" />
        </mxCell>
        <mxCell id="9pm9uhXrdwXix8Lpwpny-1" value="&lt;b&gt;&lt;u&gt;&lt;font style=&quot;font-size: 35px;&quot;&gt;Historique de vos locations&lt;/font&gt;&lt;/u&gt;&lt;/b&gt;" style="text;html=1;strokeColor=none;fillColor=none;align=center;verticalAlign=middle;whiteSpace=wrap;rounded=0;" vertex="1" parent="9pm9uhXrdwXix8Lpwpny-104">
          <mxGeometry x="20" y="570" width="460" height="60" as="geometry" />
        </mxCell>
        <mxCell id="9pm9uhXrdwXix8Lpwpny-2" value="" style="shape=table;startSize=0;container=1;collapsible=0;childLayout=tableLayout;fontSize=18;" vertex="1" parent="9pm9uhXrdwXix8Lpwpny-104">
          <mxGeometry x="20" y="640" width="990" height="110" as="geometry" />
        </mxCell>
        <mxCell id="9pm9uhXrdwXix8Lpwpny-3" style="shape=tableRow;horizontal=0;startSize=0;swimlaneHead=0;swimlaneBody=0;strokeColor=inherit;top=0;left=0;bottom=0;right=0;collapsible=0;dropTarget=0;fillColor=none;points=[[0,0.5],[1,0.5]];portConstraint=eastwest;fontSize=18;" vertex="1" parent="9pm9uhXrdwXix8Lpwpny-2">
          <mxGeometry width="990" height="54" as="geometry" />
        </mxCell>
        <mxCell id="9pm9uhXrdwXix8Lpwpny-5" value="Film ayant déjà été loué" style="shape=partialRectangle;html=1;whiteSpace=wrap;connectable=0;strokeColor=#666666;overflow=hidden;fillColor=#f5f5f5;top=0;left=0;bottom=0;right=0;pointerEvents=1;fontSize=18;fontColor=#333333;" vertex="1" parent="9pm9uhXrdwXix8Lpwpny-3">
          <mxGeometry width="480" height="54" as="geometry">
            <mxRectangle width="480" height="54" as="alternateBounds" />
          </mxGeometry>
        </mxCell>
        <mxCell id="9pm9uhXrdwXix8Lpwpny-6" value="Date de début de la location" style="shape=partialRectangle;html=1;whiteSpace=wrap;connectable=0;strokeColor=#666666;overflow=hidden;fillColor=#f5f5f5;top=0;left=0;bottom=0;right=0;pointerEvents=1;fontSize=18;fontColor=#333333;" vertex="1" parent="9pm9uhXrdwXix8Lpwpny-3">
          <mxGeometry x="480" width="270" height="54" as="geometry">
            <mxRectangle width="270" height="54" as="alternateBounds" />
          </mxGeometry>
        </mxCell>
        <mxCell id="9pm9uhXrdwXix8Lpwpny-7" value="Date d&#39;échéance" style="shape=partialRectangle;html=1;whiteSpace=wrap;connectable=0;strokeColor=#666666;overflow=hidden;fillColor=#f5f5f5;top=0;left=0;bottom=0;right=0;pointerEvents=1;fontSize=18;fontColor=#333333;" vertex="1" parent="9pm9uhXrdwXix8Lpwpny-3">
          <mxGeometry x="750" width="240" height="54" as="geometry">
            <mxRectangle width="240" height="54" as="alternateBounds" />
          </mxGeometry>
        </mxCell>
        <mxCell id="9pm9uhXrdwXix8Lpwpny-10" value="" style="shape=tableRow;horizontal=0;startSize=0;swimlaneHead=0;swimlaneBody=0;strokeColor=inherit;top=0;left=0;bottom=0;right=0;collapsible=0;dropTarget=0;fillColor=none;points=[[0,0.5],[1,0.5]];portConstraint=eastwest;fontSize=18;" vertex="1" parent="9pm9uhXrdwXix8Lpwpny-2">
          <mxGeometry y="54" width="990" height="56" as="geometry" />
        </mxCell>
        <mxCell id="9pm9uhXrdwXix8Lpwpny-12" value="Rogue One : Une histoire de Star Wars (2016)" style="shape=partialRectangle;html=1;whiteSpace=wrap;connectable=0;strokeColor=inherit;overflow=hidden;fillColor=none;top=0;left=0;bottom=0;right=0;pointerEvents=1;fontSize=18;" vertex="1" parent="9pm9uhXrdwXix8Lpwpny-10">
          <mxGeometry width="480" height="56" as="geometry">
            <mxRectangle width="480" height="56" as="alternateBounds" />
          </mxGeometry>
        </mxCell>
        <mxCell id="9pm9uhXrdwXix8Lpwpny-13" value="26-06-2024" style="shape=partialRectangle;html=1;whiteSpace=wrap;connectable=0;strokeColor=inherit;overflow=hidden;fillColor=none;top=0;left=0;bottom=0;right=0;pointerEvents=1;fontSize=18;" vertex="1" parent="9pm9uhXrdwXix8Lpwpny-10">
          <mxGeometry x="480" width="270" height="56" as="geometry">
            <mxRectangle width="270" height="56" as="alternateBounds" />
          </mxGeometry>
        </mxCell>
        <mxCell id="9pm9uhXrdwXix8Lpwpny-14" value="29-06-2024" style="shape=partialRectangle;html=1;whiteSpace=wrap;connectable=0;strokeColor=inherit;overflow=hidden;fillColor=none;top=0;left=0;bottom=0;right=0;pointerEvents=1;fontSize=18;" vertex="1" parent="9pm9uhXrdwXix8Lpwpny-10">
          <mxGeometry x="750" width="240" height="56" as="geometry">
            <mxRectangle width="240" height="56" as="alternateBounds" />
          </mxGeometry>
        </mxCell>
        <mxCell id="9pm9uhXrdwXix8Lpwpny-164" value="" style="labelPosition=right;align=left;strokeWidth=1;shape=mxgraph.mockup.markup.curlyBrace;html=1;shadow=0;dashed=0;strokeColor=#999999;direction=south;flipH=1;" vertex="1" parent="1">
          <mxGeometry x="1610" y="420" width="40" height="110" as="geometry" />
        </mxCell>
        <mxCell id="9pm9uhXrdwXix8Lpwpny-165" value="&lt;font style=&quot;font-size: 18px;&quot;&gt;Le bouton rouge &quot;Renouveler&quot; pousse la date d&#39;échéance 3 jours plus tard.&lt;br&gt;&lt;/font&gt;" style="text;html=1;strokeColor=none;fillColor=none;align=left;verticalAlign=middle;whiteSpace=wrap;rounded=0;" vertex="1" parent="1">
          <mxGeometry x="1650" y="441.25" width="310" height="67.5" as="geometry" />
        </mxCell>
        <mxCell id="9pm9uhXrdwXix8Lpwpny-166" value="&lt;font style=&quot;font-size: 15px;&quot;&gt;Vue : Page de locations et de retours (Clients)&lt;br&gt;Auteur : Josué Therrien&lt;br&gt;Date de création : 2024-08-11&lt;br&gt;Date mise à jour : 2024-08-12&lt;/font&gt;" style="rounded=0;whiteSpace=wrap;html=1;align=left;fillColor=#4D4D4D;strokeColor=#F04624;" vertex="1" parent="1">
          <mxGeometry x="210" y="-140" width="419" height="100" as="geometry" />
        </mxCell>
        <mxCell id="9pm9uhXrdwXix8Lpwpny-167" value="" style="group;movable=1;resizable=1;rotatable=1;deletable=1;editable=1;locked=0;connectable=1;" vertex="1" connectable="0" parent="1">
          <mxGeometry x="780" y="-90" width="930" height="320" as="geometry" />
        </mxCell>
        <mxCell id="9pm9uhXrdwXix8Lpwpny-168" value="" style="swimlane;shape=mxgraph.bootstrap.anchor;strokeColor=#999999;fillColor=#ffffff;fontColor=#666666;childLayout=stackLayout;horizontal=0;startSize=0;horizontalStack=1;resizeParent=1;resizeParentMax=0;resizeLast=0;collapsible=0;marginBottom=0;whiteSpace=wrap;html=1;" vertex="1" parent="9pm9uhXrdwXix8Lpwpny-167">
          <mxGeometry x="20" y="230" width="720" height="30" as="geometry" />
        </mxCell>
        <mxCell id="9pm9uhXrdwXix8Lpwpny-169" value="Catalogue" style="text;strokeColor=inherit;align=center;verticalAlign=middle;spacingLeft=10;spacingRight=10;overflow=hidden;points=[[0,0.5],[1,0.5]];portConstraint=eastwest;rotatable=0;whiteSpace=wrap;html=1;fillColor=inherit;fontColor=inherit;fontSize=17;" vertex="1" parent="9pm9uhXrdwXix8Lpwpny-168">
          <mxGeometry width="120" height="30" as="geometry" />
        </mxCell>
        <mxCell id="9pm9uhXrdwXix8Lpwpny-170" value="Acteurs" style="text;strokeColor=inherit;align=center;verticalAlign=middle;spacingLeft=10;spacingRight=10;overflow=hidden;points=[[0,0.5],[1,0.5]];portConstraint=eastwest;rotatable=0;whiteSpace=wrap;html=1;fillColor=inherit;fontColor=inherit;fontSize=17;" vertex="1" parent="9pm9uhXrdwXix8Lpwpny-168">
          <mxGeometry x="120" width="120" height="30" as="geometry" />
        </mxCell>
        <mxCell id="9pm9uhXrdwXix8Lpwpny-171" value="Mon compte" style="text;strokeColor=inherit;align=center;verticalAlign=middle;spacingLeft=10;spacingRight=10;overflow=hidden;points=[[0,0.5],[1,0.5]];portConstraint=eastwest;rotatable=0;whiteSpace=wrap;html=1;fillColor=inherit;fontColor=inherit;fontSize=17;" vertex="1" parent="9pm9uhXrdwXix8Lpwpny-168">
          <mxGeometry x="240" width="120" height="30" as="geometry" />
        </mxCell>
        <mxCell id="9pm9uhXrdwXix8Lpwpny-172" value="Utilisateurs" style="text;strokeColor=inherit;align=center;verticalAlign=middle;spacingLeft=10;spacingRight=10;overflow=hidden;points=[[0,0.5],[1,0.5]];portConstraint=eastwest;rotatable=0;whiteSpace=wrap;html=1;fillColor=inherit;fontColor=inherit;fontSize=17;" vertex="1" parent="9pm9uhXrdwXix8Lpwpny-168">
          <mxGeometry x="360" width="120" height="30" as="geometry" />
        </mxCell>
        <mxCell id="9pm9uhXrdwXix8Lpwpny-173" value="Locations" style="text;strokeColor=#23445d;align=center;verticalAlign=middle;spacingLeft=10;spacingRight=10;overflow=hidden;points=[[0,0.5],[1,0.5]];portConstraint=eastwest;rotatable=0;whiteSpace=wrap;html=1;fillColor=#bac8d3;fontSize=17;" vertex="1" parent="9pm9uhXrdwXix8Lpwpny-168">
          <mxGeometry x="480" width="120" height="30" as="geometry" />
        </mxCell>
        <mxCell id="9pm9uhXrdwXix8Lpwpny-174" value="Déconnexion&amp;nbsp;" style="text;strokeColor=#6F0000;align=center;verticalAlign=middle;spacingLeft=10;spacingRight=10;overflow=hidden;points=[[0,0.5],[1,0.5]];portConstraint=eastwest;rotatable=0;whiteSpace=wrap;html=1;fillColor=#a20025;fontColor=#ffffff;fontSize=17;" vertex="1" parent="9pm9uhXrdwXix8Lpwpny-168">
          <mxGeometry x="600" width="120" height="30" as="geometry" />
        </mxCell>
        <mxCell id="9pm9uhXrdwXix8Lpwpny-175" value="C4" style="strokeWidth=1;shadow=0;dashed=0;align=center;html=1;shape=mxgraph.mockup.text.callout;linkText=;textSize=17;textColor=#666666;callDir=NE;callStyle=line;fontSize=17;align=right;verticalAlign=top;strokeColor=#005700;fillColor=#008a00;fontColor=#ffffff;" vertex="1" parent="9pm9uhXrdwXix8Lpwpny-167">
          <mxGeometry x="200" width="160" height="230" as="geometry" />
        </mxCell>
        <mxCell id="9pm9uhXrdwXix8Lpwpny-176" value="C1" style="strokeWidth=1;shadow=0;dashed=0;align=center;html=1;shape=mxgraph.mockup.text.callout;linkText=;textSize=17;textColor=#666666;callDir=NE;callStyle=line;fontSize=17;align=right;verticalAlign=top;strokeColor=#005700;fillColor=#008a00;fontColor=#ffffff;" vertex="1" parent="9pm9uhXrdwXix8Lpwpny-167">
          <mxGeometry x="80" width="160" height="230" as="geometry" />
        </mxCell>
        <mxCell id="9pm9uhXrdwXix8Lpwpny-177" value="C17" style="strokeWidth=1;shadow=0;dashed=0;align=center;html=1;shape=mxgraph.mockup.text.callout;linkText=;textSize=17;textColor=#666666;callDir=NE;callStyle=line;fontSize=17;align=right;verticalAlign=top;strokeColor=#005700;fillColor=#008a00;fontColor=#ffffff;" vertex="1" parent="9pm9uhXrdwXix8Lpwpny-167">
          <mxGeometry x="320" width="160" height="230" as="geometry" />
        </mxCell>
        <mxCell id="9pm9uhXrdwXix8Lpwpny-178" value="C19" style="strokeWidth=1;shadow=0;dashed=0;align=center;html=1;shape=mxgraph.mockup.text.callout;linkText=;textSize=17;textColor=#666666;callDir=NE;callStyle=line;fontSize=17;align=right;verticalAlign=top;strokeColor=#005700;fillColor=#008a00;fontColor=#ffffff;" vertex="1" parent="9pm9uhXrdwXix8Lpwpny-167">
          <mxGeometry x="560" width="160" height="230" as="geometry" />
        </mxCell>
        <mxCell id="9pm9uhXrdwXix8Lpwpny-179" value="" style="verticalLabelPosition=bottom;shadow=0;dashed=0;align=center;html=1;verticalAlign=top;strokeWidth=1;shape=mxgraph.mockup.misc.shoppingCart;strokeColor=#999999;" vertex="1" parent="9pm9uhXrdwXix8Lpwpny-167">
          <mxGeometry x="760" y="220" width="50" height="50" as="geometry" />
        </mxCell>
        <mxCell id="9pm9uhXrdwXix8Lpwpny-180" value="C46" style="strokeWidth=1;shadow=0;dashed=0;align=center;html=1;shape=mxgraph.mockup.text.callout;linkText=;textSize=17;textColor=#666666;callDir=NE;callStyle=line;fontSize=17;align=right;verticalAlign=top;strokeColor=#005700;fillColor=#008a00;fontColor=#ffffff;" vertex="1" parent="9pm9uhXrdwXix8Lpwpny-167">
          <mxGeometry x="680" width="160" height="230" as="geometry" />
        </mxCell>
        <mxCell id="9pm9uhXrdwXix8Lpwpny-181" value="C9" style="strokeWidth=1;shadow=0;dashed=0;align=center;html=1;shape=mxgraph.mockup.text.callout;linkText=;textSize=17;textColor=#666666;callDir=NE;callStyle=line;fontSize=17;align=right;verticalAlign=top;strokeColor=#005700;fillColor=#008a00;fontColor=#ffffff;container=0;" vertex="1" parent="9pm9uhXrdwXix8Lpwpny-167">
          <mxGeometry x="770" width="160" height="230" as="geometry" />
        </mxCell>
        <mxCell id="9pm9uhXrdwXix8Lpwpny-182" value="C42" style="strokeWidth=1;shadow=0;dashed=0;align=center;html=1;shape=mxgraph.mockup.text.callout;linkText=;textSize=17;textColor=#666666;callDir=NE;callStyle=line;fontSize=17;align=right;verticalAlign=top;strokeColor=#005700;fillColor=#008a00;fontColor=#ffffff;" vertex="1" parent="9pm9uhXrdwXix8Lpwpny-167">
          <mxGeometry x="433" y="1" width="160" height="230" as="geometry" />
        </mxCell>
        <mxCell id="9pm9uhXrdwXix8Lpwpny-183" value="&lt;font color=&quot;#000000&quot;&gt;Trier location&lt;/font&gt;" style="strokeWidth=1;shadow=0;dashed=0;align=center;html=1;shape=mxgraph.mockup.forms.comboBox;strokeColor=#006EAF;fillColor=#008CFF;align=left;fillColor2=#aaddff;mainText=;fontColor=#ffffff;fontSize=17;spacingLeft=3;" vertex="1" parent="9pm9uhXrdwXix8Lpwpny-167">
          <mxGeometry x="205" y="290" width="150" height="30" as="geometry" />
        </mxCell>
      </root>
    </mxGraphModel>
  </diagram>
</mxfile>
